:SAMPLES-PER-SECOND 30
:FULLY-SPECIFIED
:DEGREES
32
root  58.2691 38.2495 -36.087 -144.291 -83.4902 148.056
RightUpLeg  15.9273 -10.5533 -8.90305
RightLeg  9.77547 -2.43698 2.70948
RightFoot  -20.3626 0.385998 6.61432
RightToes  -1.74624e-010 0 -3.6325e-017
Spine  4.12075 2.17499 6.45766
Spine1  11.3875 4.69275 -7.74876
HEad  -0.599198 3.61436 -5.85741
LeftShoulder1  8.1044 -11.7972 -46.1937
LeftArm  -15.7932 24.4716 -22.425
LeftForeArm  16.5814 -16.174 -3.38549
LeftHand  -0.244104 0.0205437 5.32207
RightShoulder  6.33005 9.73738 41.5709
RightArm  1.25673 -4.1832 29.3753
RightForeArm  -12.0825 25.1169 5.97288
RightHand  -0.761384 0.377982 -15.3794
LeftUpLeg  -29.715 2.61433 -5.43661
LeftLeg  8.2742 13.8581 -2.31364
LeftFoot  -0.181793 -0.12757 1.262
LeftToes  1.71891e-010 -1.5102e-010 2.10556e-011
33
root  56.6229 38.0352 -36.2075 -144.079 -82.2463 147.203
RightUpLeg  17.731 -12.209 -11.5124
RightLeg  12.6813 2.02875 2.18424
RightFoot  -19.4225 0.57238 9.98923
RightToes  -1.74624e-010 0 -3.6325e-017
Spine  4.11098 2.4688 4.30544
Spine1  11.4081 4.92442 -7.58508
HEad  -0.797077 4.43838 -5.28895
LeftShoulder1  8.12035 -11.7924 -46.2997
LeftArm  -13.7578 25.2721 -20.6667
LeftForeArm  17.5288 -15.441 -3.58554
LeftHand  -0.244104 0.0205437 5.32207
RightShoulder  6.29905 9.60478 41.8014
RightArm  0.785595 -4.75845 30.0393
RightForeArm  -11.7707 26.9756 6.4014
RightHand  -0.887073 0.991498 -16.2113
LeftUpLeg  -30.125 7.3092 -9.26213
LeftLeg  13.4846 9.21941 0.441976
LeftFoot  2.98248 -0.489965 3.76375
LeftToes  1.71891e-010 -1.5102e-010 2.10556e-011
34
root  54.944 37.924 -36.3135 -141.71 -81.4336 143.836
RightUpLeg  17.761 -12.1469 -13.3502
RightLeg  18.8334 4.36888 1.41917
RightFoot  -15.8088 0.436739 14.4134
RightToes  -1.74624e-010 0 -3.6325e-017
Spine  4.46933 2.53286 1.67399
Spine1  11.0342 4.63542 -6.78919
HEad  -0.484054 4.90909 -4.80394
LeftShoulder1  8.35279 -11.9598 -47.1306
LeftArm  -11.582 25.1801 -18.6943
LeftForeArm  18.4468 -13.0101 -4.01438
LeftHand  -0.244104 0.0205437 5.32207
RightShoulder  6.30399 9.62434 41.77
RightArm  1.55755 -5.99895 31.121
RightForeArm  -10.908 27.6571 6.52412
RightHand  -1.08766 2.16361 -16.8093
LeftUpLeg  -29.641 10.1292 -11.9759
LeftLeg  18.4288 6.06026 2.65486
LeftFoot  4.09598 -0.768732 5.51008
LeftToes  1.71891e-010 -1.5102e-010 2.10556e-011
35
root  53.2919 38.0004 -36.3874 -139.695 -80.972 140.828
RightUpLeg  14.5031 -7.95015 -13.1672
RightLeg  28.9192 1.55633 0.64975
RightFoot  -6.81328 -0.66148 16.2144
RightToes  -1.74624e-010 0 -3.6325e-017
Spine  4.99611 2.35092 -0.464297
Spine1  10.3434 4.13275 -6.10612
HEad  0.275683 5.85384 -5.04848
LeftShoulder1  8.56886 -12.1544 -47.7623
LeftArm  -10.1949 24.2914 -17.6656
LeftForeArm  19.0644 -9.51861 -4.52217
LeftHand  -0.244104 0.0205437 5.32207
RightShoulder  6.33734 9.74288 41.6037
RightArm  3.71834 -7.33757 32.5989
RightForeArm  -10.6694 26.4274 6.21752
RightHand  -1.37977 3.65444 -17.8318
LeftUpLeg  -27.6257 8.83746 -11.8622
LeftLeg  21.8727 7.35548 3.58308
LeftFoot  2.0153 -0.729543 6.11761
LeftToes  1.71891e-010 -1.5102e-010 2.10556e-011
36
root  51.7587 38.1825 -36.4383 -139.339 -80.2092 139.84
RightUpLeg  8.19852 -4.09811 -12.8673
RightLeg  41.154 -0.0738336 -0.307021
RightFoot  5.09283 -1.88752 13.4242
RightToes  -1.74624e-010 0 -3.6325e-017
Spine  5.41306 2.19875 -2.24015
Spine1  9.7088 3.7561 -5.86132
HEad  0.726872 6.40966 -5.54996
LeftShoulder1  8.65737 -12.2674 -47.9119
LeftArm  -9.45327 22.7473 -17.9342
LeftForeArm  19.4336 -6.43174 -4.70139
LeftHand  -0.244104 0.0205437 5.32207
RightShoulder  6.38204 9.83478 41.6088
RightArm  7.09122 -8.32171 34.0532
RightForeArm  -11.0303 24.2379 5.74583
RightHand  -1.55416 4.30288 -18.7404
LeftUpLeg  -25.1149 8.50751 -12.1086
LeftLeg  23.61 8.15747 4.22062
LeftFoot  -1.52855 -0.514882 6.08878
LeftToes  1.71891e-010 -1.5102e-010 2.10556e-011
37
root  50.3418 38.3884 -36.4884 -140.707 -79.2258 140.883
RightUpLeg  0.639387 -1.04104 -12.6611
RightLeg  52.1665 -0.0539358 -0.436019
RightFoot  12.349 -1.83051 9.02409
RightToes  -1.74624e-010 0 -3.6325e-017
Spine  5.62407 2.14322 -3.77897
Spine1  9.45163 3.4357 -5.64295
HEad  0.242558 6.57533 -6.19523
LeftShoulder1  8.70221 -12.3109 -48.0289
LeftArm  -9.32633 20.5815 -18.8626
LeftForeArm  20.5644 -4.86349 -4.77739
LeftHand  -0.244104 0.0205437 5.32207
RightShoulder  6.46384 9.90909 41.9306
RightArm  10.4767 -9.10698 34.9416
RightForeArm  -10.59 22.551 5.50963
RightHand  -1.51915 3.98847 -18.9108
LeftUpLeg  -22.4575 9.26755 -12.3705
LeftLeg  24.1172 8.41455 4.44382
LeftFoot  -4.59242 -0.303905 5.61092
LeftToes  1.71891e-010 -1.5102e-010 2.10556e-011
